<?xml version="1.0" encoding="UTF-8"?>
<!--!
Font Awesome Pro 6.2.0 by @fontawesome - https://fontawesome.com
License - https://fontawesome.com/license (Commercial License)
Copyright 2023 Fonticons, Inc.
-->
<svg xmlns="http://www.w3.org/2000/svg" style="display: none;">
  <symbol id="circle-exclamation" viewBox="0 0 512 512">
    <path d="M256 0C114.6 0 0 114.6 0 256s114.6 256 256 256s256-114.6 256-256S397.4 0 256 0zM256 464c-114.7 0-208-93.31-208-208S141.3 48 256 48s208 93.31 208 208S370.7 464 256 464zM256 304c13.25 0 24-10.75 24-24v-128C280 138.8 269.3 128 256 128S232 138.8 232 152v128C232 293.3 242.8 304 256 304zM256 337.1c-17.36 0-31.44 14.08-31.44 31.44C224.6 385.9 238.6 400 256 400s31.44-14.08 31.44-31.44C287.4 351.2 273.4 337.1 256 337.1z"></path>
  </symbol>
  <symbol id="xmark" viewBox="0 0 320 512">
    <path d="M312.1 375c9.369 9.369 9.369 24.57 0 33.94s-24.57 9.369-33.94 0L160 289.9l-119 119c-9.369 9.369-24.57 9.369-33.94 0s-9.369-24.57 0-33.94L126.1 256L7.027 136.1c-9.369-9.369-9.369-24.57 0-33.94s24.57-9.369 33.94 0L160 222.1l119-119c9.369-9.369 24.57-9.369 33.94 0s9.369 24.57 0 33.94L193.9 256L312.1 375z"></path>
  </symbol>
  <symbol id="robot" viewBox="0 0 640 512">
    <path d="M352 400c0 8.836-7.164 16-16 16h-32C295.2 416 288 408.8 288 400C288 391.2 295.2 384 304 384h32C344.8 384 352 391.2 352 400zM240 384H192c-8.836 0-16 7.162-16 16C176 408.8 183.2 416 192 416h48C248.8 416 256 408.8 256 400C256 391.2 248.8 384 240 384zM172 260C172 222.5 202.5 192 240 192c37.5 0 68 30.5 68 68c0 37.49-30.5 68-68 68C202.5 328 172 297.5 172 260zM220 260c0 11.04 8.955 20 20 20c11.05 0 20-8.955 20-20C260 248.1 251 240 240 240C228.1 240 220 248.1 220 260zM468 260c0 37.49-30.58 67.1-68.07 67.1c-.0254 0 .0254 0 0 0s.0254 0 0 0c-37.5 0-68.07-30.5-68.07-67.1c0-37.5 30.58-67.1 68.07-67.1c.0254 0-.0254 0 0 0s-.0254 0 0 0C437.4 192 468 222.5 468 260zM419.9 260c0-11.02-8.916-19.94-19.93-19.99C388.9 240.1 380 248.1 380 260c0 11.02 8.916 19.94 19.93 19.99C410.9 279.9 419.9 271 419.9 260zM448 384h-48c-8.836 0-16 7.162-16 16c0 8.836 7.164 16 16 16H448c8.836 0 16-7.164 16-16C464 391.2 456.8 384 448 384zM544 176v256c0 44.18-35.82 80-80 80h-288C131.8 512 96 476.2 96 432v-256C96 131.8 131.8 96 176 96h120V24C296 10.75 306.8 0 320 0s24 10.75 24 24V96h120C508.2 96 544 131.8 544 176zM496 176c0-17.64-14.36-32-32-32h-288c-17.64 0-32 14.36-32 32v256c0 17.64 14.36 32 32 32h288c17.64 0 32-14.36 32-32V176zM592.1 192H576v192h16.08C609.8 384 624 369.7 624 352V224C624 206.3 609.7 192 592.1 192zM16 224v128c0 17.67 14.26 32 31.94 32H64V192H48.03C30.36 192 16 206.3 16 224z"></path>
  </symbol>
  <symbol id="sun-bright" viewBox="0 0 512 512">
    <path d="M256 144C194.1 144 144 194.1 144 256c0 61.86 50.14 112 112 112s112-50.14 112-112C368 194.1 317.9 144 256 144zM256 320c-35.29 0-64-28.71-64-64c0-35.29 28.71-64 64-64s64 28.71 64 64C320 291.3 291.3 320 256 320zM256 112c13.25 0 24-10.75 24-24v-64C280 10.75 269.3 0 256 0S232 10.75 232 24v64C232 101.3 242.8 112 256 112zM256 400c-13.25 0-24 10.75-24 24v64C232 501.3 242.8 512 256 512s24-10.75 24-24v-64C280 410.8 269.3 400 256 400zM488 232h-64c-13.25 0-24 10.75-24 24s10.75 24 24 24h64C501.3 280 512 269.3 512 256S501.3 232 488 232zM112 256c0-13.25-10.75-24-24-24h-64C10.75 232 0 242.8 0 256s10.75 24 24 24h64C101.3 280 112 269.3 112 256zM391.8 357.8c-9.344-9.375-24.56-9.372-33.94 .0031s-9.375 24.56 0 33.93l45.25 45.28c4.672 4.688 10.83 7.031 16.97 7.031s12.28-2.344 16.97-7.031c9.375-9.375 9.375-24.56 0-33.94L391.8 357.8zM120.2 154.2c4.672 4.688 10.83 7.031 16.97 7.031S149.5 158.9 154.2 154.2c9.375-9.375 9.375-24.56 0-33.93L108.9 74.97c-9.344-9.375-24.56-9.375-33.94 0s-9.375 24.56 0 33.94L120.2 154.2zM374.8 161.2c6.141 0 12.3-2.344 16.97-7.031l45.25-45.28c9.375-9.375 9.375-24.56 0-33.94s-24.59-9.375-33.94 0l-45.25 45.28c-9.375 9.375-9.375 24.56 0 33.93C362.5 158.9 368.7 161.2 374.8 161.2zM120.2 357.8l-45.25 45.28c-9.375 9.375-9.375 24.56 0 33.94c4.688 4.688 10.83 7.031 16.97 7.031s12.3-2.344 16.97-7.031l45.25-45.28c9.375-9.375 9.375-24.56 0-33.93S129.6 348.4 120.2 357.8z"></path>
  </symbol>
  <symbol id="moon" viewBox="0 0 512 512">
    <path d="M421.6 379.9c-.6641 0-1.35 .0625-2.049 .1953c-11.24 2.143-22.37 3.17-33.32 3.17c-94.81 0-174.1-77.14-174.1-175.5c0-63.19 33.79-121.3 88.73-152.6c8.467-4.812 6.339-17.66-3.279-19.44c-11.2-2.078-29.53-3.746-40.9-3.746C132.3 31.1 32 132.2 32 256c0 123.6 100.1 224 223.8 224c69.04 0 132.1-31.45 173.8-82.93C435.3 389.1 429.1 379.9 421.6 379.9zM255.8 432C158.9 432 80 353 80 256c0-76.32 48.77-141.4 116.7-165.8C175.2 125 163.2 165.6 163.2 207.8c0 99.44 65.13 183.9 154.9 212.8C298.5 428.1 277.4 432 255.8 432z"></path>
  </symbol>
  <symbol id="notdef" viewBox="0 0 384 512">
    <path d="M336 0h-288C21.49 0 0 21.49 0 48v416C0 490.5 21.49 512 48 512h288c26.51 0 48-21.49 48-48v-416C384 21.49 362.5 0 336 0zM336 90.16V421.8L221.2 256L336 90.16zM192 213.8L77.19 48h229.6L192 213.8zM162.8 256L48 421.8V90.16L162.8 256zM192 298.2L306.8 464H77.19L192 298.2z"></path>
  </symbol>
</svg>
