<?xml version="1.0" encoding="UTF-8"?>
<!--!
Font Awesome Pro 6.2.0 by @fontawesome - https://fontawesome.com
License - https://fontawesome.com/license (Commercial License)
Copyright 2023 Fonticons, Inc.
-->
<svg xmlns="http://www.w3.org/2000/svg" style="display: none;">
  <symbol id="circle-exclamation" viewBox="0 0 512 512">
    <path d="M256 512c141.4 0 256-114.6 256-256S397.4 0 256 0S0 114.6 0 256S114.6 512 256 512zm0-384c13.3 0 24 10.7 24 24V264c0 13.3-10.7 24-24 24s-24-10.7-24-24V152c0-13.3 10.7-24 24-24zm32 224c0 17.7-14.3 32-32 32s-32-14.3-32-32s14.3-32 32-32s32 14.3 32 32z"></path>
  </symbol>
  <symbol id="caret-up" viewBox="0 0 320 512">
    <path d="M182.6 137.4c-12.5-12.5-32.8-12.5-45.3 0l-128 128c-9.2 9.2-11.9 22.9-6.9 34.9s16.6 19.8 29.6 19.8H288c12.9 0 24.6-7.8 29.6-19.8s2.2-25.7-6.9-34.9l-128-128z"></path>
  </symbol>
  <symbol id="notdef" viewBox="0 0 384 512">
    <path d="M64 390.3L153.5 256 64 121.7V390.3zM102.5 448H281.5L192 313.7 102.5 448zm128-192L320 390.3V121.7L230.5 256zM281.5 64H102.5L192 198.3 281.5 64zM0 48C0 21.5 21.5 0 48 0H336c26.5 0 48 21.5 48 48V464c0 26.5-21.5 48-48 48H48c-26.5 0-48-21.5-48-48V48z"></path>
  </symbol>
</svg>
